<?xml version="1.0" encoding="UTF-8" standalone="no"?>
<svg
   xmlns:dc="http://purl.org/dc/elements/1.1/"
   xmlns:cc="http://creativecommons.org/ns#"
   xmlns:rdf="http://www.w3.org/1999/02/22-rdf-syntax-ns#"
   xmlns:svg="http://www.w3.org/2000/svg"
   xmlns="http://www.w3.org/2000/svg"
   xmlns:sodipodi="http://sodipodi.sourceforge.net/DTD/sodipodi-0.dtd"
   xmlns:inkscape="http://www.inkscape.org/namespaces/inkscape"
   width="13.465634mm"
   height="13.465634mm"
   viewBox="0 0 13.465634 13.465634"
   version="1.1"
   id="svg1882"
   inkscape:version="1.0.1 (3bc2e813f5, 2020-09-07)"
   sodipodi:docname="logo.svg">
  <defs
     id="defs1876" />
  <sodipodi:namedview
     id="base"
     pagecolor="#ffffff"
     bordercolor="#666666"
     borderopacity="1.0"
     inkscape:pageopacity="0.0"
     inkscape:pageshadow="2"
     inkscape:zoom="1.979899"
     inkscape:cx="202.58972"
     inkscape:cy="182.58972"
     inkscape:document-units="mm"
     inkscape:current-layer="layer1"
     inkscape:document-rotation="0"
     showgrid="false"
     fit-margin-top="0"
     fit-margin-left="0"
     fit-margin-right="0"
     fit-margin-bottom="0"
     inkscape:window-width="2558"
     inkscape:window-height="1419"
     inkscape:window-x="0"
     inkscape:window-y="19"
     inkscape:window-maximized="0" />
  <metadata
     id="metadata1879">
    <rdf:RDF>
      <cc:Work
         rdf:about="">
        <dc:format>image/svg+xml</dc:format>
        <dc:type
           rdf:resource="http://purl.org/dc/dcmitype/StillImage" />
        <dc:title></dc:title>
      </cc:Work>
    </rdf:RDF>
  </metadata>
  <g
     inkscape:label="Layer 1"
     inkscape:groupmode="layer"
     id="layer1"
     transform="translate(-52.23147,-99.85647)">
    <path
       inkscape:export-ydpi="199.93279"
       inkscape:export-xdpi="199.93279"
       inkscape:export-filename="/home/denes/Dokumentumok/omnipath2/figures/fig1_02.png"
       d="m 65.200188,109.12819 -0.874586,0.28521 0.259449,0.88257 -0.913422,0.1091 0.08228,0.91623 -0.917156,-0.0712 -0.09805,0.91468 -0.885645,-0.24875 -0.274606,0.87797 -0.820098,-0.41675 -0.440614,0.80753 -0.723036,-0.56874 -0.589688,0.70605 -0.598189,-0.69886 -0.716101,0.57744 -0.450353,-0.80214 -0.814996,0.42665 -0.285209,-0.87459 -0.88257,0.25945 -0.109106,-0.91342 -0.916228,0.0823 0.07119,-0.91715 -0.914675,-0.0981 0.24875,-0.88564 -0.877972,-0.27461 0.416752,-0.8201 -0.80753,-0.44061 0.568737,-0.72304 -0.706053,-0.58969 0.698866,-0.59819 -0.577444,-0.7161 0.802139,-0.45035 -0.426645,-0.815 0.874585,-0.28521 -0.259449,-0.88257 0.913422,-0.1091 -0.08228,-0.91623 0.917156,0.0712 0.09804,-0.91467 0.885645,0.24875 0.274606,-0.87798 0.820099,0.41676 0.440613,-0.807534 0.723037,0.568734 0.589688,-0.70605 0.598188,0.69887 0.716102,-0.577448 0.450352,0.802138 0.814996,-0.42664 0.28521,0.87458 0.88257,-0.25945 0.109106,0.91342 0.916228,-0.0823 -0.07119,0.91716 0.914675,0.098 -0.248751,0.88565 0.877973,0.2746 -0.416752,0.8201 0.807529,0.44062 -0.568737,0.72303 0.706054,0.58969 -0.698867,0.59819 0.577445,0.7161 -0.802139,0.45035 z"
       inkscape:randomized="0"
       inkscape:rounded="0"
       inkscape:flatsided="false"
       sodipodi:arg2="0.48482358"
       sodipodi:arg1="0.38664881"
       sodipodi:r2="6.0596461"
       sodipodi:r1="6.7329402"
       sodipodi:cy="106.58929"
       sodipodi:cx="58.964287"
       sodipodi:sides="32"
       id="path8109-7"
       style="fill:#007b7f;fill-opacity:1;fill-rule:nonzero;stroke:none;stroke-width:0.0541306;stroke-miterlimit:4;stroke-dasharray:none;stroke-dashoffset:0;stroke-opacity:1"
       sodipodi:type="star" />
    <path
       inkscape:export-ydpi="199.93279"
       inkscape:export-xdpi="199.93279"
       inkscape:export-filename="/home/denes/Dokumentumok/omnipath2/figures/fig1_02.png"
       d="m 54.575585,103.492 c -0.126269,0.0306 -0.289074,0.0806 -0.436473,0.17273 -0.25569,0.15465 -0.973905,1.43479 -0.67692,2.65901 0.143745,0.59267 0.566941,0.93752 1.02359,0.82673 0.923012,-0.22392 1.694738,-2.04689 1.395379,-3.2808 -0.09902,-0.40809 -0.338838,-0.61223 -0.635184,-0.54034 -0.437216,0.106 -0.789238,0.86017 -0.656057,1.40911 0.06248,0.25749 0.250489,0.41764 0.444803,0.37049 0.15545,-0.0377 0.290271,-0.24531 0.256086,-0.38621 -0.01047,-0.0437 -0.02874,-0.0548 -0.08331,-0.0466 -0.110421,0.0116 -0.179154,-0.0387 -0.20745,-0.15544 -0.06481,-0.26719 0.03805,-0.92483 0.34889,-1.00025 0.150588,-0.0365 0.291354,0.11958 0.358538,0.39655 0.157929,0.65096 -0.01582,1.58818 -0.426989,2.28974 -0.135018,0.22821 -0.300861,0.37133 -0.490322,0.4173 -0.315777,0.0766 -0.579624,-0.16287 -0.691581,-0.62439 -0.167354,-0.68982 -0.04643,-1.50617 0.304816,-2.15723 0.03432,-0.0701 0.100647,-0.17873 0.181619,-0.31153 z"
       style="font-style:italic;font-variant:normal;font-weight:normal;font-stretch:normal;font-size:3.43229px;line-height:6.24052px;font-family:'Script MT Std';-inkscape-font-specification:'Script MT Std Italic';text-align:start;letter-spacing:0px;word-spacing:0px;writing-mode:lr-tb;text-anchor:start;fill:#f7b200;fill-opacity:1;stroke:none;stroke-width:0.363556px;stroke-linecap:butt;stroke-linejoin:miter;stroke-opacity:1"
       id="path34699-3"
       inkscape:connector-curvature="0" />
    <path
       inkscape:export-ydpi="199.93279"
       inkscape:export-xdpi="199.93279"
       inkscape:export-filename="/home/denes/Dokumentumok/omnipath2/figures/fig1_02.png"
       d="m 57.014823,106.21703 c -0.07179,-0.31695 -0.09704,-0.52688 -0.114726,-0.91861 0.247243,-0.50752 0.448899,-0.73646 0.507193,-0.75061 0.04363,-0.0105 0.06062,0.0162 0.07342,0.0696 0.01315,0.0534 0.03339,0.43429 0.03828,0.58224 l 0.0093,1.03184 0.576471,-0.253 c 0.007,-0.62921 0.0058,-0.7165 0.0012,-1.03419 0.177338,-0.39281 0.35485,-0.63648 0.447143,-0.65887 0.04864,-0.0116 0.08471,0.0105 0.09658,0.0589 0.01454,0.0583 0.01163,0.19771 -0.0035,0.39158 -0.02932,0.36717 -0.02141,0.63275 0.01862,0.79793 0.05899,0.24288 0.227799,0.36652 0.436692,0.31584 0.242904,-0.0589 0.43219,-0.25396 0.777905,-0.80083 l -0.06597,-0.27205 -0.06877,0.11943 c -0.176755,0.31036 -0.291714,0.45142 -0.379156,0.47262 -0.05829,0.0145 -0.110072,-0.03 -0.129038,-0.10763 -0.02129,-0.0875 -0.02025,-0.23172 0.007,-0.48008 0.03525,-0.36348 0.032,-0.58901 -0.01164,-0.76876 -0.05189,-0.21374 -0.211021,-0.33975 -0.385903,-0.29732 -0.247755,0.0601 -0.424359,0.34987 -0.741986,0.86415 -0.01606,-0.12978 -0.0263,-0.2148 -0.04398,-0.28766 -0.05306,-0.2186 -0.200119,-0.33724 -0.365297,-0.29717 -0.247756,0.0602 -0.536829,0.48 -0.711362,0.82071 -0.04293,0.0774 -0.05655,0.10635 -0.08482,0.15948 -0.0012,-0.26189 0.01315,-0.49701 0.05655,-0.80588 l -0.546149,0.25075 c -0.143163,0.70344 -0.148074,1.06471 -0.0185,1.59908 0.04003,0.16517 0.08634,0.3134 0.130201,0.45194 z"
       style="font-style:italic;font-variant:normal;font-weight:normal;font-stretch:normal;font-size:3.43229px;line-height:6.24052px;font-family:'Script MT Std';-inkscape-font-specification:'Script MT Std Italic';text-align:start;letter-spacing:0px;word-spacing:0px;writing-mode:lr-tb;text-anchor:start;fill:#f7b200;fill-opacity:1;stroke:none;stroke-width:0.363556px;stroke-linecap:butt;stroke-linejoin:miter;stroke-opacity:1"
       id="path34701-6"
       inkscape:connector-curvature="0" />
    <path
       inkscape:export-ydpi="199.93279"
       inkscape:export-xdpi="199.93279"
       inkscape:export-filename="/home/denes/Dokumentumok/omnipath2/figures/fig1_02.png"
       d="m 60.516095,105.38305 c -0.0683,-0.28175 -0.107163,-0.46267 -0.123802,-0.84958 0.147608,-0.30328 0.396038,-0.80592 0.532058,-0.83893 0.03886,-0.009 0.06423,0.0105 0.07714,0.0635 0.0093,0.08 0.0011,0.19522 -0.0256,0.38174 -0.04968,0.3464 -0.05806,0.6725 -0.02036,0.82796 0.06016,0.24775 0.23989,0.37387 0.453635,0.32202 0.267186,-0.0648 0.51507,-0.31527 0.797336,-0.80555 l -0.06597,-0.27206 c -0.04422,0.0931 -0.282709,0.55212 -0.447875,0.5922 -0.07284,0.0177 -0.129632,-0.0251 -0.150762,-0.11263 -0.01641,-0.0679 -0.0058,-0.25585 0.02769,-0.50054 0.0498,-0.367 0.0555,-0.6616 0.02257,-0.79764 -0.04491,-0.18459 -0.199247,-0.29115 -0.35955,-0.25227 -0.306061,0.0742 -0.56494,0.51257 -0.838817,1.01625 -0.01047,-0.25469 0.02222,-0.58666 0.05073,-0.83017 l -0.551013,0.25192 c -0.127153,0.66353 -0.131225,1.0915 -0.01163,1.58215 0.04724,0.19432 0.09588,0.33166 0.139824,0.4702 z"
       style="font-style:italic;font-variant:normal;font-weight:normal;font-stretch:normal;font-size:3.43229px;line-height:6.24052px;font-family:'Script MT Std';-inkscape-font-specification:'Script MT Std Italic';text-align:start;letter-spacing:0px;word-spacing:0px;writing-mode:lr-tb;text-anchor:start;fill:#f7b200;fill-opacity:1;stroke:none;stroke-width:0.363556px;stroke-linecap:butt;stroke-linejoin:miter;stroke-opacity:1"
       id="path34703-1"
       inkscape:connector-curvature="0" />
    <path
       inkscape:export-ydpi="199.93279"
       inkscape:export-xdpi="199.93279"
       inkscape:export-filename="/home/denes/Dokumentumok/omnipath2/figures/fig1_02.png"
       d="m 62.178336,101.90889 c -0.01315,0.22422 -0.0363,0.33801 -0.09948,0.52309 0.111119,0.0554 0.243206,0.0696 0.379237,0.0365 0.276891,-0.0671 0.37065,-0.29567 0.279892,-0.66974 -0.07214,0.0844 -0.137916,0.13123 -0.230232,0.15357 -0.111701,0.0271 -0.207287,-0.006 -0.329483,-0.0435 z m 1.128018,2.02052 c -0.157173,0.28504 -0.243136,0.43964 -0.393735,0.47616 -0.07284,0.0176 -0.139079,-0.0434 -0.163875,-0.1455 -0.03305,-0.13603 -0.0363,-0.36154 -0.01315,-0.69117 l 0.05771,-0.80103 -0.02909,0.007 -0.571771,0.27238 c -0.03595,0.29681 -0.120881,0.9861 -6.35e-4,1.4816 0.0754,0.31092 0.287455,0.50639 0.491484,0.4569 0.102044,-0.0248 0.327238,-0.15658 0.689301,-0.78451 z"
       style="font-style:italic;font-variant:normal;font-weight:normal;font-stretch:normal;font-size:3.43229px;line-height:6.24052px;font-family:'Script MT Std';-inkscape-font-specification:'Script MT Std Italic';text-align:start;letter-spacing:0px;word-spacing:0px;writing-mode:lr-tb;text-anchor:start;fill:#f7b200;fill-opacity:1;stroke:none;stroke-width:0.363556px;stroke-linecap:butt;stroke-linejoin:miter;stroke-opacity:1"
       id="path34705-2"
       inkscape:connector-curvature="0" />
    <path
       inkscape:export-ydpi="199.93279"
       inkscape:export-xdpi="199.93279"
       inkscape:export-filename="/home/denes/Dokumentumok/omnipath2/figures/fig1_02.png"
       d="m 57.286257,108.66996 c -0.04305,0.0979 -0.07633,0.17285 -0.07051,0.19713 0.01454,0.0583 0.166517,0.11391 0.244254,0.0951 0.131225,-0.0319 0.540959,-0.37814 0.397178,-0.97082 -0.131946,-0.54409 -0.639488,-0.79132 -1.309906,-0.6287 -1.044462,0.2534 -1.4836,1.15722 -1.357505,1.67704 0.05306,0.2186 0.25903,0.4104 0.404777,0.37505 0.07284,-0.0177 0.394503,-0.23973 0.370918,-0.33691 -0.01164,-0.0485 -0.04189,-0.067 -0.106233,-0.077 -0.155033,-0.0242 -0.241751,-0.106 -0.278275,-0.25655 -0.110887,-0.45665 0.38317,-1.04972 1.000132,-1.1994 0.412922,-0.10018 0.724615,0.0608 0.811823,0.42032 0.05306,0.21862 0.02246,0.4318 -0.106814,0.70491 z m -0.142291,-0.79878 c -0.05306,-0.049 -0.12919,-0.0869 -0.16313,-0.0786 -0.05341,0.0131 -0.172811,0.0933 -0.256994,0.1704 -0.347833,0.32613 -0.428002,0.69537 -0.327308,1.55569 0.13268,1.14061 -0.202342,1.37108 -0.406383,1.42056 -0.150598,0.0365 -0.2628,-0.0442 -0.306398,-0.22399 -0.01315,-0.0534 -0.0306,-0.31668 -0.04235,-0.36524 -0.01315,-0.0533 -0.06609,-0.0817 -0.119578,-0.0688 -0.05341,0.0131 -0.207101,0.14287 -0.317057,0.26209 -0.101345,0.11205 -0.11739,0.15199 -0.0939,0.2491 0.0754,0.31092 0.40537,0.46235 0.808576,0.36453 0.427501,-0.10368 0.801828,-0.40541 0.994908,-0.7969 0.163654,-0.34319 0.197606,-0.69092 0.121906,-1.3207 -0.08098,-0.73652 -0.06528,-0.90494 0.107628,-1.16805 z"
       style="font-style:italic;font-variant:normal;font-weight:normal;font-stretch:normal;font-size:3.43229px;line-height:6.24052px;font-family:'Script MT Std';-inkscape-font-specification:'Script MT Std Italic';text-align:center;letter-spacing:0px;word-spacing:0px;writing-mode:lr-tb;text-anchor:middle;fill:#f7b200;fill-opacity:1;stroke:none;stroke-width:0.363556px;stroke-linecap:butt;stroke-linejoin:miter;stroke-opacity:1"
       id="path34690-9"
       inkscape:connector-curvature="0" />
    <path
       inkscape:export-ydpi="199.93279"
       inkscape:export-xdpi="199.93279"
       inkscape:export-filename="/home/denes/Dokumentumok/omnipath2/figures/fig1_02.png"
       d="m 58.790859,108.28855 c 0.136031,-0.0329 0.244521,0.0539 0.286967,0.22874 0.09658,0.39835 -0.02676,1.2256 -0.376514,1.31044 -0.131225,0.0319 -0.251758,-0.0624 -0.293006,-0.2324 -0.09658,-0.39836 0.03281,-1.22191 0.382553,-1.30678 z m 1.546921,0.71524 c -0.231803,0.38029 -0.306561,0.49618 -0.418297,0.52328 -0.08738,0.0213 -0.163433,-0.0376 -0.195233,-0.16868 -0.03537,-0.14575 -0.02502,-0.57004 -0.01454,-0.75789 l 0.04037,-0.74537 -0.131225,0.0319 -0.420962,0.38504 c -0.121324,-0.16087 -0.284617,-0.21901 -0.478931,-0.17187 -0.437228,0.106 -1.09737,0.88349 -0.899368,1.69963 0.09192,0.37892 0.382436,0.62223 0.664191,0.55386 0.276902,-0.0671 0.477522,-0.32159 0.689859,-0.86692 0.0306,0.14691 0.150517,0.66306 0.514919,0.57465 0.242903,-0.059 0.399785,-0.30273 0.714759,-0.78552 z"
       style="font-style:italic;font-variant:normal;font-weight:normal;font-stretch:normal;font-size:3.43229px;line-height:6.24052px;font-family:'Script MT Std';-inkscape-font-specification:'Script MT Std Italic';text-align:center;letter-spacing:0px;word-spacing:0px;writing-mode:lr-tb;text-anchor:middle;fill:#f7b200;fill-opacity:1;stroke:none;stroke-width:0.363556px;stroke-linecap:butt;stroke-linejoin:miter;stroke-opacity:1"
       id="path34692-3"
       inkscape:connector-curvature="0" />
    <path
       inkscape:export-ydpi="199.93279"
       inkscape:export-xdpi="199.93279"
       inkscape:export-filename="/home/denes/Dokumentumok/omnipath2/figures/fig1_02.png"
       d="m 60.373059,107.77098 -0.221063,0.0641 0.01315,0.39292 0.182201,-0.0548 c -0.01047,0.33697 -0.05969,0.72946 0.02164,1.06468 0.09076,0.37405 0.335441,0.57702 0.607491,0.51104 0.252619,-0.0613 0.471204,-0.28407 0.792485,-0.80438 l -0.06597,-0.27205 c -0.177942,0.3055 -0.291994,0.49264 -0.491182,0.54095 -0.116519,0.0283 -0.223926,-0.0538 -0.26045,-0.2043 -0.0683,-0.28177 -0.0047,-0.82206 0.0023,-1.02934 l 0.362133,-0.1187 -0.01047,-0.38322 -0.325621,0.0995 0.04259,-0.88477 -0.60457,0.28559 z"
       style="font-style:italic;font-variant:normal;font-weight:normal;font-stretch:normal;font-size:3.43229px;line-height:6.24052px;font-family:'Script MT Std';-inkscape-font-specification:'Script MT Std Italic';text-align:center;letter-spacing:0px;word-spacing:0px;writing-mode:lr-tb;text-anchor:middle;fill:#f7b200;fill-opacity:1;stroke:none;stroke-width:0.363556px;stroke-linecap:butt;stroke-linejoin:miter;stroke-opacity:1"
       id="path34694-1"
       inkscape:connector-curvature="0" />
    <path
       inkscape:export-ydpi="199.93279"
       inkscape:export-xdpi="199.93279"
       inkscape:export-filename="/home/denes/Dokumentumok/omnipath2/figures/fig1_02.png"
       d="m 62.218141,107.8069 c 0.0012,-0.41708 0.01629,-0.61096 0.05957,-0.89921 0.08366,-0.50381 0.204797,-0.85214 0.321385,-0.88042 0.04852,-0.0116 0.09076,0.0345 0.111817,0.1219 0.06132,0.25261 -0.02944,0.74786 -0.492916,1.6576 z m 0.197071,1.46964 c -0.109723,-0.4518 -0.149098,-0.69942 -0.171985,-1.06936 0.184272,-0.34305 0.408,-0.60823 0.539167,-0.64006 0.05341,-0.0131 0.101811,0.0164 0.11589,0.0748 0.01454,0.0583 0.007,0.19889 -0.02827,0.39264 -0.05725,0.37908 -0.06772,0.67485 -0.0242,0.8546 0.05539,0.22832 0.254598,0.34974 0.468353,0.29789 0.247757,-0.0602 0.49446,-0.31544 0.781611,-0.80688 l -0.066,-0.27205 c -0.20148,0.37809 -0.345874,0.56743 -0.447883,0.59217 -0.05829,0.0145 -0.122196,-0.0371 -0.13866,-0.1053 -0.01454,-0.0583 -0.007,-0.26558 0.02292,-0.49937 0.04631,-0.38158 0.05201,-0.67617 0.02025,-0.80733 -0.04608,-0.18946 -0.183481,-0.28984 -0.348648,-0.24978 -0.155462,0.0377 -0.229953,0.11229 -0.56437,0.43012 0.306841,-0.70712 0.401869,-1.12113 0.32291,-1.44662 -0.04724,-0.19431 -0.148004,-0.33445 -0.230582,-0.31443 -0.04375,0.0105 -0.373768,0.21927 -0.736902,0.48227 -0.345785,1.07666 -0.39747,1.88136 -0.173544,2.80438 0.04712,0.19432 0.100531,0.37169 0.159954,0.53216 z"
       style="font-style:italic;font-variant:normal;font-weight:normal;font-stretch:normal;font-size:3.43229px;line-height:6.24052px;font-family:'Script MT Std';-inkscape-font-specification:'Script MT Std Italic';text-align:center;letter-spacing:0px;word-spacing:0px;writing-mode:lr-tb;text-anchor:middle;fill:#f7b200;fill-opacity:1;stroke:none;stroke-width:0.363556px;stroke-linecap:butt;stroke-linejoin:miter;stroke-opacity:1"
       id="path34696-9"
       inkscape:connector-curvature="0" />
  </g>
</svg>
